<svg xmlns="http://www.w3.org/2000/svg" viewBox="0 0 219.12 219.46">
<g id="Layer_2" data-name="Layer 2">
<g id="Layer_1-2" data-name="Layer 1">
<path d="M210,154.82q4.45-16.27,9-32.51c.24-.83.06-1.11-.71-1.33-6.59-1.81-13.18-3.66-19.78-5.44-.94-.26-1.32-.57-1.25-1.62a83,83,0,0,0-1.74-22.13c-.2-.94,0-1.32.86-1.71,6.22-2.76,12.39-5.62,18.61-8.37,1.06-.47,1.08-.88.64-1.85q-7.05-15.35-14-30.76c-.36-.79-.64-.94-1.47-.56-6.25,2.9-12.55,5.71-18.8,8.59a1.18,1.18,0,0,1-1.76-.43,83.33,83.33,0,0,0-15.61-16c-.84-.66-.83-1.13-.41-2,2.93-6.05,5.79-12.13,8.74-18.17.47-1,.42-1.4-.64-1.89-5-2.33-10-4.76-15-7.15S146.6,6.77,141.58,4.3c-1-.51-1.42-.32-1.89.68-2.85,6.09-5.79,12.13-8.65,18.2-.41.86-.77,1.17-1.82.93A82.53,82.53,0,0,0,107,22c-.92,0-1.22-.27-1.43-1.11-1.64-6.56-3.35-13.1-5-19.64-.25-1-.47-1.45-1.74-1.12C88,3,77.11,5.75,66.24,8.51c-1,.25-1.15.53-.89,1.51,1.75,6.62,3.43,13.26,5.16,19.89.21.8.17,1.22-.68,1.65A84.14,84.14,0,0,0,51.27,44.24a1.14,1.14,0,0,1-1.71.11c-5.47-4-11-7.84-16.43-11.83-1-.72-1.43-.76-2.17.27Q21.23,46.58,11.37,60.27c-.48.67-.52.92.19,1.43,5.45,3.83,10.83,7.76,16.3,11.57,1.18.82,1.51,1.45.9,2.86a78.39,78.39,0,0,0-5.81,21c-.13.9-.5,1-1.28,1.11-6.87.5-13.73,1.07-20.59,1.56-1,.06-1.14.34-1.06,1.27q1.35,16.82,2.6,33.64c.08,1.12.42,1.36,1.51,1.27,6.82-.58,13.64-1.07,20.46-1.64.82-.07,1.14.16,1.37,1a83.34,83.34,0,0,0,9.23,20.37,1.23,1.23,0,0,1-.23,1.87c-4.92,4.76-9.76,9.58-14.68,14.33-.73.71-.71,1.06,0,1.76q11.84,12,23.6,24.07c.84.87,1.24.69,2,0,4.75-4.72,9.56-9.39,14.31-14.11.7-.7,1.19-.89,2.12-.3a84.17,84.17,0,0,0,19.93,9.53c1,.32,1.18.75,1.08,1.71-.7,6.74-1.34,13.5-2,20.25-.08.78-.12,1.29.95,1.39q17,1.57,34,3.29c.92.1,1.11-.17,1.18-1,.63-6.85,1.33-13.7,2-20.55.07-.83.31-1.2,1.22-1.31A82.57,82.57,0,0,0,142.19,191c.94-.39,1.32-.13,1.81.59,3.81,5.63,7.68,11.21,11.46,16.85.65,1,1.06.94,1.95.32q13.82-9.54,27.72-19c.92-.63.85-1,.29-1.84-3.85-5.55-7.62-11.15-11.48-16.68a1.39,1.39,0,0,1,.17-2.13,78.34,78.34,0,0,0,12.52-17.51c.73-1.4,1.41-1.41,2.68-1,6.27,1.81,12.57,3.5,18.84,5.32C209.28,156.16,209.69,156,210,154.82ZM89.31,151c-22.51-10.8-32.08-38.53-21.17-61.35a46.14,46.14,0,1,1,83.17,40C140.29,152.63,112.63,162.15,89.31,151Z" style="fill:#0f0"/>
</g>
</g>
</svg>